<svg xmlns="http://www.w3.org/2000/svg" version="1.1" xmlns:xlink="http://www.w3.org/1999/xlink" viewBox="0 0 200 200" width="200" height="200"><metadata><rdf:RDF xmlns:rdf="http://www.w3.org/1999/02/22-rdf-syntax-ns#" xmlns:dc="http://purl.org/dc/elements/1.1/"><rdf:Description><dc:creator>RealFaviconGenerator</dc:creator><dc:source>https://realfavicongenerator.net</dc:source></rdf:Description></rdf:RDF></metadata><rect width="200" height="200" fill="url('#gradient')"></rect><defs><linearGradient id="gradient" gradientTransform="rotate(45 0.5 0.5)"><stop offset="0%" stop-color="#000000"></stop><stop offset="100%" stop-color="#e7e7e7"></stop></linearGradient></defs><g><g fill="#4d2b2b" transform="matrix(4.6207069440962645,0,0,4.6207069440962645,7.930654880448557,130.4752394976727)" stroke="#514744" stroke-width="0.2"><path d="M9.08-7.79L3.74-5.95L9.08-4.15L9.08-1.15L0.45-4.67L0.45-7.27L9.08-10.78L9.08-7.79ZM17.11-14.22L12.25 1.22L9.91 1.22L14.77-14.22L17.11-14.22ZM25.63-3.78L25.63-3.78Q25.63-4.53 25.09-4.95Q24.56-5.37 23.22-5.82Q21.88-6.27 21.04-6.69L21.04-6.69Q18.27-8.05 18.27-10.42L18.27-10.42Q18.27-11.60 18.96-12.50Q19.65-13.41 20.91-13.91Q22.17-14.41 23.74-14.41L23.74-14.41Q25.27-14.41 26.49-13.87Q27.71-13.32 28.38-12.31Q29.05-11.30 29.05-10L29.05-10L25.63-10Q25.63-10.87 25.10-11.35Q24.57-11.83 23.66-11.83L23.66-11.83Q22.74-11.83 22.21-11.42Q21.68-11.02 21.68-10.39L21.68-10.39Q21.68-9.84 22.27-9.40Q22.85-8.96 24.33-8.48Q25.80-8.01 26.75-7.46L26.75-7.46Q29.05-6.13 29.05-3.80L29.05-3.80Q29.05-1.93 27.65-0.87Q26.24 0.20 23.79 0.20L23.79 0.20Q22.06 0.20 20.66-0.42Q19.26-1.04 18.55-2.12Q17.84-3.20 17.84-4.61L17.84-4.61L21.28-4.61Q21.28-3.47 21.87-2.92Q22.46-2.38 23.79-2.38L23.79-2.38Q24.64-2.38 25.13-2.75Q25.63-3.12 25.63-3.78ZM30.82-4.13L36.13-5.98L30.82-7.78L30.82-10.77L39.40-7.26L39.40-4.66L30.82-1.14L30.82-4.13Z"></path></g></g><style>@media (prefers-color-scheme: light) { :root { filter: none; } }
@media (prefers-color-scheme: dark) { :root { filter: none; } }
</style></svg>